<svg xmlns="http://www.w3.org/2000/svg" xmlns:xlink="http://www.w3.org/1999/xlink" width="2000" zoomAndPan="magnify" viewBox="0 0 1500 1499.999933" height="2000" preserveAspectRatio="xMidYMid meet" version="1.0"><rect x="-150" width="1800" fill="#ffffff" y="-149.999993" height="1799.99992" fill-opacity="1"/><rect x="-150" width="1800" fill="#403a35" y="-149.999993" height="1799.99992" fill-opacity="1"/><path fill="#ecc178" d="M 1246.695312 1386.289062 C 1241.386719 1444.105469 1185.933594 1487.46875 1118.382812 1487.46875 C 1116.023438 1487.46875 1113.960938 1487.46875 1111.601562 1487.46875 C 1036.085938 1484.226562 947.597656 1421.980469 947.007812 1256.789062 C 945.828125 1014.308594 939.632812 1002.804688 833.148438 807.523438 L 816.925781 777.730469 C 804.535156 755.015625 788.902344 729.351562 772.089844 702.507812 C 756.75 677.726562 740.820312 651.769531 725.1875 624.335938 C 777.988281 808.996094 833.738281 1081.269531 719.878906 1123.160156 C 715.160156 1124.929688 710.441406 1126.109375 705.425781 1126.109375 C 701.296875 1126.109375 697.167969 1125.226562 693.332031 1123.160156 C 667.375 1110.179688 642.890625 1054.425781 540.832031 730.234375 L 540.242188 728.464844 C 506.320312 617.84375 447.324219 343.507812 631.683594 187.457031 C 667.078125 157.371094 721.058594 132.296875 766.78125 153.535156 C 815.449219 175.953125 840.226562 242.914062 841.113281 352.355469 C 841.703125 353.242188 841.996094 354.125 842.292969 355.304688 C 918.984375 811.949219 1056.441406 1006.34375 1147.292969 1134.960938 C 1210.710938 1223.160156 1255.839844 1287.171875 1246.695312 1386.289062 Z M 464.140625 112.53125 C 409.863281 112.53125 365.617188 156.484375 365.617188 211.058594 C 365.617188 265.335938 409.570312 309.582031 464.140625 309.582031 C 518.707031 309.582031 562.660156 265.628906 562.660156 211.058594 C 562.660156 156.484375 518.414062 112.53125 464.140625 112.53125 Z M 763.535156 1321.097656 C 767.371094 1321.6875 771.203125 1321.980469 775.039062 1321.980469 C 813.382812 1321.980469 845.832031 1293.664062 851.4375 1255.902344 C 857.628906 1213.425781 828.429688 1174.191406 785.953125 1167.996094 C 743.476562 1161.804688 704.246094 1191.007812 698.050781 1233.484375 C 691.855469 1275.375 721.058594 1314.902344 763.535156 1321.097656 Z M 475.9375 591.589844 C 482.425781 584.511719 492.160156 573.890625 489.210938 556.78125 C 486.558594 540.558594 473.285156 536.429688 463.253906 533.183594 C 452.636719 529.9375 449.09375 528.167969 448.210938 521.382812 C 447.324219 515.484375 449.980469 512.828125 461.484375 506.339844 C 472.988281 499.851562 489.507812 490.117188 489.507812 467.105469 C 489.507812 445.867188 471.808594 439.671875 460.007812 435.542969 C 455.585938 434.066406 448.503906 431.707031 447.914062 429.644531 C 448.800781 424.921875 467.972656 414.894531 477.117188 410.175781 C 495.996094 400.4375 512.21875 392.179688 514.285156 378.90625 C 515.167969 372.710938 513.105469 366.515625 508.386719 362.386719 C 503.664062 357.664062 494.816406 353.832031 476.824219 345.867188 C 429.628906 324.921875 341.429688 285.984375 342.316406 211.941406 C 343.199219 120.789062 405.734375 88.34375 463.84375 88.34375 C 531.6875 88.34375 576.226562 158.550781 576.816406 159.140625 C 579.472656 163.5625 585.371094 164.742188 589.796875 162.089844 C 592.453125 160.320312 594.222656 157.371094 594.222656 154.125 C 594.222656 151.765625 594.222656 97.191406 553.515625 55.894531 C 524.609375 27.28125 483.605469 12.53125 430.808594 12.53125 C 359.128906 12.53125 301.609375 43.503906 273.292969 98.078125 C 244.089844 154.125 250.875 224.625 290.695312 281.855469 C 326.683594 333.476562 376.238281 355.011719 406.03125 367.992188 C 412.8125 370.644531 419.597656 373.890625 426.089844 377.726562 L 424.90625 378.90625 C 413.992188 388.050781 401.015625 389.523438 388.332031 391.292969 C 369.453125 393.65625 346.152344 396.605469 346.152344 432.003906 C 346.152344 462.683594 372.699219 469.464844 388.332031 473.300781 C 393.347656 474.480469 402.195312 476.839844 403.671875 479.199219 C 406.324219 487.753906 405.144531 488.9375 391.28125 493.65625 C 381.253906 496.898438 362.667969 503.09375 367.09375 524.039062 C 372.402344 551.769531 395.117188 558.847656 410.453125 563.566406 C 414.878906 565.042969 421.367188 567.109375 422.546875 568.289062 C 425.203125 574.480469 424.023438 575.957031 416.355469 581.855469 C 410.453125 586.578125 400.128906 594.246094 403.671875 607.816406 C 408.390625 627.875 421.074219 632.003906 430.21875 635.25 C 438.183594 637.90625 442.902344 639.378906 445.851562 649.410156 C 456.175781 683.628906 470.921875 737.019531 470.921875 737.019531 C 472.101562 741.148438 475.644531 743.804688 480.066406 743.804688 C 480.65625 743.804688 481.246094 743.804688 481.835938 743.804688 C 486.558594 742.921875 490.097656 738.496094 489.507812 733.777344 C 489.800781 729.941406 490.390625 725.8125 490.980469 721.976562 C 495.109375 696.3125 503.664062 642.917969 470.921875 598.964844 C 472.101562 596.015625 473.875 593.65625 475.9375 591.589844 Z M 838.164062 1129.648438 C 833.148438 1126.699219 828.132812 1123.453125 823.414062 1119.914062 L 824.59375 1119.324219 C 834.328125 1113.425781 844.652344 1113.71875 854.386719 1114.015625 C 869.132812 1114.308594 888.011719 1114.605469 891.847656 1087.171875 C 895.386719 1063.277344 875.625 1055.015625 863.824219 1050.296875 C 860.285156 1048.824219 853.207031 1045.871094 852.617188 1043.808594 C 851.730469 1037.023438 852.617188 1035.84375 864.121094 1034.074219 C 872.378906 1032.597656 887.421875 1030.238281 886.539062 1013.128906 C 885.652344 991.003906 868.542969 982.746094 857.335938 977.4375 C 854.089844 976.253906 851.140625 974.484375 848.484375 972.421875 C 847.304688 967.40625 848.191406 966.226562 854.976562 962.6875 C 860.285156 959.738281 869.132812 954.722656 867.660156 943.808594 C 866.480469 927.582031 857.039062 922.863281 849.960938 919.324219 C 844.0625 916.375 840.523438 914.601562 839.34375 906.34375 C 835.210938 878.613281 829.902344 835.25 829.902344 835.25 C 829.3125 831.417969 826.363281 828.761719 822.527344 828.761719 L 822.234375 828.761719 C 818.398438 828.761719 815.15625 832.007812 814.859375 835.839844 C 814.269531 838.792969 813.382812 842.035156 812.203125 844.984375 C 806.011719 864.457031 793.03125 904.867188 813.679688 942.921875 C 812.203125 944.691406 810.730469 946.167969 808.960938 947.640625 C 803.0625 952.363281 794.210938 959.738281 794.800781 973.304688 C 794.800781 986.285156 804.832031 991.003906 812.203125 994.546875 C 819.875 998.378906 822.824219 1000.148438 822.527344 1005.460938 C 822.527344 1010.179688 820.167969 1011.949219 810.433594 1015.785156 C 800.699219 1019.617188 786.835938 1025.222656 784.183594 1043.21875 C 781.824219 1059.738281 794.800781 1066.816406 803.652344 1071.242188 C 806.894531 1073.011719 812.203125 1075.667969 812.5 1077.140625 C 811.320312 1080.679688 795.390625 1086.285156 787.722656 1088.941406 C 771.792969 1094.25 758.226562 1098.972656 754.980469 1109 C 753.503906 1113.71875 754.390625 1118.734375 757.636719 1122.570312 C 760.585938 1126.699219 767.074219 1130.828125 780.347656 1139.089844 C 814.859375 1160.917969 878.867188 1201.332031 869.722656 1259.148438 C 858.21875 1329.652344 806.011719 1347.644531 760.585938 1341.15625 C 707.785156 1332.601562 680.941406 1273.308594 680.648438 1272.71875 C 679.46875 1269.769531 676.222656 1268 672.976562 1268.292969 C 669.734375 1268.589844 667.078125 1271.242188 666.488281 1274.488281 C 666.195312 1276.257812 660 1319.03125 686.84375 1355.609375 C 706.015625 1381.570312 736.398438 1397.792969 777.398438 1403.691406 C 786.246094 1404.875 795.097656 1405.757812 803.945312 1405.757812 C 848.484375 1405.757812 886.242188 1388.058594 909.839844 1355.316406 C 939.335938 1314.902344 942.285156 1259.445312 917.804688 1210.179688 C 895.976562 1165.636719 859.988281 1143.21875 838.164062 1129.648438 Z M 838.164062 1129.648438 " fill-opacity="1" fill-rule="nonzero"/><path fill="#ad6b3e" d="M 1228.113281 1384.519531 C 1223.6875 1434.078125 1173.25 1471.246094 1112.78125 1468.589844 C 1042.28125 1465.640625 966.769531 1408.117188 966.179688 1256.496094 C 965 1009.292969 956.445312 993.363281 849.960938 798.082031 L 833.738281 768.289062 C 821.054688 744.984375 805.125 719.320312 788.605469 692.183594 C 725.484375 589.820312 647.019531 462.683594 659.410156 336.722656 C 660.292969 331.707031 656.753906 326.691406 651.445312 326.101562 C 646.429688 325.21875 641.417969 328.757812 640.828125 334.066406 C 640.828125 334.363281 640.828125 334.65625 640.828125 335.246094 C 634.632812 400.144531 650.5625 464.453125 676.519531 525.515625 C 676.519531 526.105469 676.519531 526.695312 676.8125 527.285156 L 677.699219 530.234375 C 760.585938 784.21875 813.679688 1068.882812 714.570312 1105.164062 C 708.375 1107.230469 705.71875 1107.523438 702.769531 1106.050781 C 682.121094 1095.726562 648.789062 1006.640625 560.003906 724.335938 L 559.414062 722.566406 C 526.378906 615.484375 468.859375 350.292969 644.660156 201.324219 C 674.160156 175.953125 721.945312 152.648438 759.699219 170.054688 C 800.996094 189.226562 823.117188 253.535156 823.117188 355.894531 C 823.117188 357.960938 824.003906 359.730469 825.183594 361.5 C 902.464844 819.914062 1041.101562 1015.488281 1132.839844 1145.285156 C 1195.078125 1233.78125 1236.371094 1292.1875 1228.113281 1384.519531 Z M 464.140625 131.410156 C 420.1875 131.410156 384.496094 167.105469 384.496094 211.058594 C 384.496094 255.011719 420.1875 290.703125 464.140625 290.703125 C 508.089844 290.703125 543.78125 255.011719 543.78125 211.058594 C 543.78125 166.808594 508.089844 131.410156 464.140625 131.410156 Z M 783.886719 1182.453125 C 780.9375 1181.863281 777.691406 1181.863281 774.742188 1181.863281 C 743.769531 1181.863281 717.519531 1204.578125 712.800781 1235.253906 C 707.785156 1269.472656 731.382812 1301.332031 765.597656 1306.640625 C 782.117188 1309.003906 798.929688 1304.871094 812.203125 1294.84375 C 825.476562 1284.8125 834.328125 1270.0625 836.980469 1253.542969 C 841.703125 1219.324219 818.105469 1187.46875 783.886719 1182.453125 Z M 783.886719 1182.453125 " fill-opacity="1" fill-rule="nonzero"/><path fill="#403a35" d="M 539.945312 69.167969 C 553.808594 83.328125 564.132812 101.027344 569.738281 120.199219 C 547.910156 97.488281 511.335938 69.460938 464.140625 69.460938 C 379.777344 69.460938 324.617188 124.921875 323.4375 211.058594 C 322.257812 297.785156 417.828125 339.964844 469.152344 362.679688 C 480.066406 367.402344 492.457031 373.003906 495.40625 375.367188 C 493.929688 379.789062 477.117188 388.640625 467.972656 393.066406 C 446.734375 403.980469 422.546875 416.664062 429.921875 435.835938 C 433.757812 446.164062 444.375 449.703125 453.519531 452.945312 C 466.5 457.371094 470.332031 459.730469 470.332031 466.8125 C 470.332031 478.316406 463.253906 483.035156 451.75 489.820312 C 440.835938 496.015625 426.085938 504.570312 429.332031 524.039062 C 431.988281 542.917969 447.324219 547.933594 457.355469 551.179688 C 467.089844 554.128906 469.742188 555.601562 470.332031 560.027344 C 471.808594 567.699219 467.972656 572.417969 461.78125 579.203125 C 455.585938 585.988281 445.851562 596.605469 455.878906 611.0625 C 473.875 634.660156 476.824219 662.683594 475.9375 685.988281 C 471.808594 671.828125 467.382812 656.488281 463.550781 643.804688 C 457.648438 624.335938 444.964844 620.207031 435.820312 617.253906 C 427.859375 614.601562 423.726562 613.421875 421.367188 603.097656 C 421.074219 601.917969 421.367188 601.03125 427.269531 596.605469 C 434.347656 591 447.914062 580.675781 439.363281 560.617188 C 435.527344 551.472656 425.792969 548.523438 415.46875 545.277344 C 399.246094 540.261719 388.035156 535.839844 385.085938 520.203125 C 384.496094 516.664062 384.203125 515.78125 396.589844 511.648438 C 408.09375 507.816406 429.332031 501.03125 421.367188 474.1875 C 418.125 461.5 404.554688 457.960938 392.460938 455.011719 C 373.582031 450.292969 364.4375 446.457031 364.4375 432.003906 C 364.4375 413.417969 370.929688 412.535156 390.101562 410.175781 C 403.964844 408.402344 421.074219 406.339844 435.820312 393.949219 C 438.476562 391.882812 447.03125 385.394531 445.851562 375.957031 C 444.671875 364.746094 432.578125 359.730469 412.8125 351.175781 C 383.316406 338.195312 338.480469 318.726562 305.445312 271.53125 C 270.34375 219.613281 264.148438 156.484375 290.105469 106.632812 C 314.882812 58.84375 366.207031 31.410156 430.808594 31.410156 C 478.003906 31.410156 514.875 44.09375 539.945312 69.167969 Z M 904.824219 1216.671875 C 884.765625 1175.960938 852.027344 1155.609375 830.492188 1142.332031 C 816.039062 1133.484375 807.484375 1127.878906 807.78125 1119.03125 C 808.074219 1111.65625 815.15625 1107.523438 817.515625 1106.34375 C 830.492188 1098.378906 844.0625 1098.675781 854.976562 1098.972656 C 870.3125 1099.265625 875.328125 1099.265625 877.6875 1084.8125 C 879.164062 1073.601562 872.96875 1069.472656 858.515625 1063.570312 C 849.371094 1059.738281 839.34375 1055.609375 838.164062 1045.28125 C 834.917969 1023.75 852.320312 1020.800781 861.761719 1019.027344 C 872.082031 1017.257812 872.082031 1016.375 871.789062 1013.71875 C 871.199219 1001.328125 863.234375 996.609375 851.140625 990.710938 C 843.472656 987.171875 836.097656 983.628906 834.328125 975.960938 C 830.199219 959.441406 841.703125 952.953125 847.894531 949.410156 C 852.910156 946.460938 853.207031 945.871094 853.207031 944.988281 C 852.617188 936.726562 849.667969 935.253906 843.765625 932.300781 C 836.980469 929.058594 827.542969 924.042969 825.183594 908.410156 C 823.707031 898.085938 821.9375 885.695312 820.464844 874.191406 C 816.925781 892.183594 816.039062 914.011719 827.25 934.664062 C 833.441406 946.757812 824.59375 954.132812 818.988281 958.554688 C 813.382812 963.277344 809.84375 966.226562 810.140625 972.421875 C 810.140625 975.960938 811.613281 977.140625 819.285156 980.679688 C 826.953125 984.21875 838.164062 989.824219 838.164062 1004.871094 C 838.457031 1020.503906 825.773438 1025.222656 816.628906 1029.058594 C 806.894531 1032.894531 800.699219 1035.84375 799.519531 1044.691406 C 798.636719 1050.003906 801.289062 1052.363281 811.023438 1057.378906 C 817.808594 1060.917969 825.476562 1065.046875 827.542969 1073.308594 C 831.082031 1089.234375 810.730469 1096.316406 793.03125 1102.214844 C 785.363281 1104.871094 771.203125 1109.589844 769.730469 1112.835938 C 775.921875 1117.554688 782.117188 1121.980469 788.902344 1125.816406 C 826.363281 1149.414062 895.976562 1193.660156 885.0625 1260.625 C 874.148438 1327.585938 824.886719 1364.753906 759.109375 1354.726562 C 722.238281 1348.824219 696.871094 1322.867188 682.710938 1302.511719 C 684.777344 1318.148438 690.675781 1333.191406 700.117188 1346.171875 C 716.632812 1368.589844 743.773438 1382.75 780.644531 1388.355469 C 830.789062 1395.726562 874.148438 1380.390625 898.925781 1345.875 C 924.292969 1310.773438 926.949219 1260.917969 904.824219 1216.671875 Z M 904.824219 1216.671875 " fill-opacity="1" fill-rule="nonzero"/><path fill="#ecc178" d="M 1147.882812 1134.371094 C 1057.03125 1005.753906 919.277344 811.355469 842.882812 354.714844 C 842.585938 353.535156 842.292969 352.652344 841.703125 351.765625 C 841.113281 242.324219 816.039062 175.363281 767.371094 152.945312 C 721.648438 131.707031 667.375 156.777344 632.273438 186.867188 C 447.914062 342.917969 506.910156 617.253906 540.832031 727.875 L 541.421875 729.644531 C 643.480469 1053.835938 667.964844 1109.589844 693.921875 1122.570312 C 697.757812 1124.632812 701.886719 1125.519531 706.015625 1125.519531 C 711.03125 1125.519531 715.75 1124.339844 720.46875 1122.570312 C 834.328125 1080.679688 778.28125 808.40625 725.777344 623.746094 C 741.410156 650.882812 757.339844 677.136719 772.679688 701.917969 C 789.195312 729.054688 805.125 754.425781 817.515625 777.140625 L 833.738281 806.933594 C 940.222656 1002.214844 946.417969 1014.015625 947.597656 1256.199219 C 948.1875 1421.390625 1036.675781 1483.929688 1112.191406 1486.878906 C 1114.550781 1486.878906 1116.613281 1486.878906 1118.972656 1486.878906 C 1186.226562 1486.878906 1241.976562 1443.515625 1247.285156 1385.699219 C 1255.839844 1287.171875 1210.710938 1223.160156 1147.882812 1134.371094 Z M 1228.113281 1384.519531 C 1223.6875 1434.078125 1173.25 1471.246094 1112.78125 1468.589844 C 1042.28125 1465.640625 966.769531 1408.117188 966.179688 1256.496094 C 965 1009.292969 956.445312 993.363281 849.960938 798.082031 L 833.738281 768.289062 C 821.054688 744.984375 805.125 719.320312 788.605469 692.183594 C 725.484375 589.820312 647.019531 462.683594 659.410156 336.722656 C 660.292969 331.707031 656.753906 326.691406 651.445312 326.101562 C 646.429688 325.21875 641.417969 328.757812 640.828125 334.066406 C 640.828125 334.363281 640.828125 334.65625 640.828125 335.246094 C 634.632812 400.144531 650.5625 464.453125 676.519531 525.515625 C 676.519531 526.105469 676.519531 526.695312 676.8125 527.285156 L 677.699219 530.234375 C 760.585938 784.21875 813.679688 1068.882812 714.570312 1105.164062 C 708.375 1107.230469 705.71875 1107.523438 702.769531 1106.050781 C 682.121094 1095.726562 648.789062 1006.640625 560.003906 724.335938 L 559.414062 722.566406 C 526.378906 615.484375 468.859375 350.292969 644.660156 201.324219 C 674.160156 175.953125 721.945312 152.648438 759.699219 170.054688 C 800.996094 189.226562 823.117188 253.535156 823.117188 355.894531 C 823.117188 357.960938 824.003906 359.730469 825.183594 361.5 C 902.464844 819.914062 1041.101562 1015.488281 1132.839844 1145.285156 C 1195.078125 1233.78125 1236.371094 1292.1875 1228.113281 1384.519531 Z M 464.140625 112.53125 C 409.863281 112.53125 365.617188 156.484375 365.617188 211.058594 C 365.617188 265.628906 409.570312 309.582031 464.140625 309.582031 C 518.707031 309.582031 562.660156 265.628906 562.660156 211.058594 C 562.660156 156.484375 518.414062 112.53125 464.140625 112.53125 Z M 464.140625 290.410156 C 420.1875 290.410156 384.496094 254.714844 384.496094 210.761719 C 384.496094 166.808594 420.1875 131.117188 464.140625 131.117188 C 508.089844 131.117188 543.78125 166.808594 543.78125 210.761719 C 543.78125 254.714844 508.089844 290.410156 464.140625 290.410156 Z M 763.535156 1321.097656 C 767.371094 1321.6875 771.203125 1321.980469 775.039062 1321.980469 C 813.382812 1321.980469 845.832031 1293.664062 851.4375 1255.902344 C 857.628906 1213.425781 828.429688 1174.191406 785.953125 1167.996094 C 743.476562 1161.804688 704.246094 1191.007812 698.050781 1233.484375 C 691.855469 1275.375 721.058594 1314.902344 763.535156 1321.097656 Z M 712.800781 1235.253906 C 717.519531 1204.578125 743.773438 1181.863281 774.742188 1181.863281 C 777.691406 1181.863281 780.9375 1182.15625 783.886719 1182.453125 C 818.105469 1187.46875 841.703125 1219.324219 836.6875 1253.542969 C 834.328125 1270.0625 825.476562 1284.8125 811.910156 1294.84375 C 798.636719 1304.871094 781.824219 1309.003906 765.304688 1306.640625 C 731.382812 1301.628906 707.785156 1269.472656 712.800781 1235.253906 Z M 475.9375 591.589844 C 482.425781 584.511719 492.160156 573.890625 489.210938 556.78125 C 486.558594 540.558594 473.285156 536.429688 463.253906 533.183594 C 452.636719 529.9375 449.09375 528.167969 448.210938 521.382812 C 447.324219 515.484375 449.980469 512.828125 461.484375 506.339844 C 472.988281 499.851562 489.507812 490.117188 489.507812 467.105469 C 489.507812 445.867188 471.808594 439.671875 460.007812 435.542969 C 455.585938 434.066406 448.503906 431.707031 447.914062 429.644531 C 448.800781 424.921875 467.972656 414.894531 477.117188 410.175781 C 495.996094 400.4375 512.21875 392.179688 514.285156 378.90625 C 515.167969 372.710938 513.105469 366.515625 508.386719 362.386719 C 503.664062 357.664062 494.816406 353.832031 476.824219 345.867188 C 429.628906 324.921875 341.429688 285.984375 342.316406 211.941406 C 343.199219 120.789062 405.734375 88.34375 463.84375 88.34375 C 531.6875 88.34375 576.226562 158.550781 576.816406 159.140625 C 579.472656 163.5625 585.371094 164.742188 589.796875 162.089844 C 592.453125 160.320312 594.222656 157.371094 594.222656 154.125 C 594.222656 151.765625 594.222656 97.191406 553.515625 55.894531 C 524.609375 27.28125 483.605469 12.53125 430.808594 12.53125 C 359.128906 12.53125 301.609375 43.503906 273.292969 98.078125 C 244.089844 154.125 250.875 224.625 290.695312 281.855469 C 326.683594 333.476562 376.238281 355.011719 406.03125 367.992188 C 412.8125 370.644531 419.597656 373.890625 426.089844 377.726562 L 424.90625 378.90625 C 413.992188 388.050781 401.015625 389.523438 388.332031 391.292969 C 369.453125 393.65625 346.152344 396.605469 346.152344 432.003906 C 346.152344 462.683594 372.699219 469.464844 388.332031 473.300781 C 393.347656 474.480469 402.195312 476.839844 403.671875 479.199219 C 406.324219 487.753906 405.144531 488.9375 391.28125 493.65625 C 381.253906 496.898438 362.667969 503.09375 367.09375 524.039062 C 372.402344 551.769531 395.117188 558.847656 410.453125 563.566406 C 414.878906 565.042969 421.367188 567.109375 422.546875 568.289062 C 425.203125 574.480469 424.023438 575.957031 416.355469 581.855469 C 410.453125 586.578125 400.128906 594.246094 403.671875 607.816406 C 408.390625 627.875 421.074219 632.003906 430.21875 635.25 C 438.183594 637.90625 442.902344 639.378906 445.851562 649.410156 C 456.175781 683.628906 470.921875 737.019531 470.921875 737.019531 C 472.101562 741.148438 475.644531 743.804688 480.066406 743.804688 C 480.65625 743.804688 481.246094 743.804688 481.835938 743.804688 C 486.558594 742.921875 490.097656 738.496094 489.507812 733.777344 C 489.800781 729.941406 490.390625 725.8125 490.980469 721.976562 C 495.109375 696.3125 503.664062 642.917969 470.921875 598.964844 C 472.101562 596.015625 473.875 593.65625 475.9375 591.589844 Z M 476.234375 685.398438 C 472.101562 671.238281 467.679688 655.898438 463.84375 643.214844 C 457.945312 623.746094 445.261719 619.617188 436.117188 616.664062 C 428.152344 614.011719 424.023438 612.832031 421.957031 602.507812 C 421.664062 601.324219 421.957031 600.441406 427.859375 596.015625 C 434.9375 590.410156 448.503906 580.085938 439.953125 560.027344 C 436.117188 550.882812 426.382812 547.933594 416.058594 544.6875 C 399.835938 539.671875 388.625 535.25 385.675781 519.613281 C 385.085938 516.074219 384.792969 515.191406 397.179688 511.058594 C 408.683594 507.226562 429.921875 500.441406 421.957031 473.597656 C 418.714844 460.910156 405.144531 457.371094 393.050781 454.421875 C 374.171875 449.703125 365.027344 445.867188 365.027344 431.414062 C 365.027344 412.828125 371.519531 411.945312 390.691406 409.582031 C 404.554688 407.8125 421.664062 405.75 436.410156 393.359375 C 439.066406 391.292969 447.621094 384.804688 446.441406 375.367188 C 444.964844 364.15625 433.167969 359.140625 413.402344 350.585938 C 383.90625 337.605469 339.070312 318.136719 306.035156 270.941406 C 270.34375 219.613281 264.148438 156.484375 290.105469 106.632812 C 314.882812 58.84375 366.207031 31.410156 430.808594 31.410156 C 478.003906 31.410156 514.875 44.09375 539.945312 69.460938 C 553.808594 83.621094 564.132812 101.320312 569.738281 120.496094 C 547.910156 97.78125 511.335938 69.757812 464.140625 69.757812 C 379.777344 69.757812 324.617188 125.214844 323.4375 211.351562 C 322.257812 298.078125 417.828125 340.261719 469.152344 362.976562 C 480.066406 367.695312 492.457031 373.300781 495.40625 375.660156 C 493.929688 380.085938 477.117188 388.933594 467.972656 393.359375 C 446.734375 404.273438 422.546875 416.957031 429.921875 436.132812 C 433.757812 446.457031 444.375 449.996094 453.519531 453.242188 C 466.5 457.667969 470.332031 460.027344 470.332031 467.105469 C 470.332031 478.609375 463.253906 483.332031 451.75 490.117188 C 440.835938 496.308594 426.085938 504.863281 429.332031 524.335938 C 431.988281 543.214844 447.324219 548.226562 457.355469 551.472656 C 467.089844 554.421875 469.742188 555.898438 470.332031 560.324219 C 471.808594 567.992188 467.972656 572.710938 461.78125 579.496094 C 455.585938 586.28125 445.851562 596.902344 455.878906 611.355469 C 474.167969 634.363281 477.117188 662.09375 476.234375 685.398438 Z M 838.164062 1129.648438 C 833.148438 1126.699219 828.132812 1123.453125 823.414062 1119.914062 L 824.59375 1119.324219 C 834.328125 1113.425781 844.652344 1113.71875 854.386719 1114.015625 C 869.132812 1114.308594 888.011719 1114.605469 891.847656 1087.171875 C 895.386719 1063.277344 875.625 1055.015625 863.824219 1050.296875 C 860.285156 1048.824219 853.207031 1045.871094 852.617188 1043.808594 C 851.730469 1037.023438 852.617188 1035.84375 864.121094 1034.074219 C 872.378906 1032.597656 887.421875 1030.238281 886.539062 1013.128906 C 885.652344 991.003906 868.542969 982.746094 857.335938 977.4375 C 854.089844 976.253906 851.140625 974.484375 848.484375 972.421875 C 847.304688 967.40625 848.191406 966.226562 854.976562 962.6875 C 860.285156 959.738281 869.132812 954.722656 867.660156 943.808594 C 866.480469 927.582031 857.039062 922.863281 849.960938 919.324219 C 844.0625 916.375 840.523438 914.601562 839.34375 906.34375 C 835.210938 878.613281 829.902344 835.25 829.902344 835.25 C 829.3125 831.417969 826.363281 828.761719 822.527344 828.761719 L 822.234375 828.761719 C 818.398438 828.761719 815.15625 832.007812 814.859375 835.839844 C 814.269531 838.792969 813.382812 842.035156 812.203125 844.984375 C 806.011719 864.457031 793.03125 904.867188 813.679688 942.921875 C 812.203125 944.691406 810.730469 946.167969 808.960938 947.640625 C 803.0625 952.363281 794.210938 959.738281 794.800781 973.304688 C 794.800781 986.285156 804.832031 991.003906 812.203125 994.546875 C 819.875 998.378906 822.824219 1000.148438 822.527344 1005.460938 C 822.527344 1010.179688 820.167969 1011.949219 810.433594 1015.785156 C 800.699219 1019.617188 786.835938 1025.222656 784.183594 1043.21875 C 781.824219 1059.738281 794.800781 1066.816406 803.652344 1071.242188 C 806.894531 1073.011719 812.203125 1075.667969 812.5 1077.140625 C 811.320312 1080.679688 795.390625 1086.285156 787.722656 1088.941406 C 771.792969 1094.25 758.226562 1098.972656 754.980469 1109 C 753.503906 1113.71875 754.390625 1118.734375 757.636719 1122.570312 C 760.585938 1126.699219 767.074219 1130.828125 780.347656 1139.089844 C 814.859375 1160.917969 878.867188 1201.332031 869.722656 1259.148438 C 858.21875 1329.652344 806.011719 1347.644531 760.585938 1341.15625 C 707.785156 1332.601562 680.941406 1273.308594 680.648438 1272.71875 C 679.46875 1269.769531 676.222656 1268 672.976562 1268.292969 C 669.734375 1268.589844 667.078125 1271.242188 666.488281 1274.488281 C 666.195312 1276.257812 660 1319.03125 686.84375 1355.609375 C 706.015625 1381.570312 736.398438 1397.792969 777.398438 1403.691406 C 786.246094 1404.875 795.097656 1405.757812 803.945312 1405.757812 C 848.484375 1405.757812 886.242188 1388.058594 909.839844 1355.316406 C 939.335938 1314.902344 942.285156 1259.445312 917.804688 1210.179688 C 895.976562 1165.636719 859.988281 1143.21875 838.164062 1129.648438 Z M 898.335938 1346.761719 C 873.265625 1381.273438 830.199219 1396.613281 780.054688 1389.238281 C 743.179688 1383.929688 716.042969 1369.472656 699.527344 1347.054688 C 690.382812 1334.074219 684.1875 1319.328125 682.121094 1303.398438 C 696.574219 1323.457031 721.648438 1349.414062 758.519531 1355.609375 C 824.296875 1365.34375 873.558594 1328.472656 884.472656 1261.507812 C 895.386719 1194.546875 825.773438 1150.296875 788.3125 1126.699219 C 781.824219 1122.863281 775.332031 1118.441406 769.140625 1113.71875 C 770.910156 1110.476562 784.773438 1105.460938 792.441406 1103.101562 C 810.433594 1096.90625 830.492188 1090.121094 826.953125 1074.191406 C 825.183594 1065.636719 817.21875 1061.800781 810.433594 1058.261719 C 800.699219 1053.246094 798.046875 1050.886719 798.929688 1045.578125 C 800.40625 1036.433594 806.304688 1033.777344 816.039062 1029.945312 C 825.183594 1026.402344 837.570312 1021.390625 837.570312 1005.753906 C 837.867188 990.710938 826.363281 985.105469 818.695312 981.566406 C 811.023438 978.027344 809.550781 976.550781 809.550781 973.304688 C 809.253906 967.109375 812.792969 964.160156 818.398438 959.441406 C 824.003906 955.015625 832.851562 947.640625 826.660156 935.546875 C 815.449219 914.898438 816.335938 893.070312 819.875 875.074219 C 821.347656 886.578125 823.117188 898.96875 824.59375 909.292969 C 826.953125 924.929688 836.390625 929.941406 843.175781 933.1875 C 849.074219 936.136719 852.027344 937.613281 852.617188 945.871094 C 852.617188 946.757812 852.320312 947.347656 847.304688 950.296875 C 841.113281 953.835938 829.609375 960.328125 833.738281 976.847656 C 835.800781 984.515625 842.882812 988.054688 850.550781 991.59375 C 862.644531 997.496094 870.609375 1002.214844 871.199219 1014.605469 C 871.492188 1017.554688 871.492188 1018.144531 861.167969 1019.914062 C 851.730469 1021.390625 834.328125 1024.339844 837.570312 1046.167969 C 838.457031 1056.492188 848.78125 1060.621094 857.925781 1064.457031 C 872.082031 1070.355469 878.574219 1074.488281 877.097656 1085.695312 C 875.035156 1100.152344 869.722656 1100.152344 854.386719 1099.855469 C 843.472656 1099.5625 829.902344 1099.265625 816.925781 1107.230469 C 814.5625 1108.707031 807.191406 1112.539062 807.191406 1119.914062 C 806.894531 1128.765625 815.746094 1134.074219 829.902344 1143.21875 C 851.4375 1156.492188 884.175781 1176.847656 904.234375 1217.554688 C 926.949219 1260.917969 924.292969 1310.773438 898.335938 1346.761719 Z M 898.335938 1346.761719 " fill-opacity="1" fill-rule="nonzero"/></svg>